<?xml version="1.0" encoding="UTF-8" standalone="no"?>
<!DOCTYPE svg PUBLIC "-//W3C//DTD SVG 1.1//EN"
 "http://www.w3.org/Graphics/SVG/1.1/DTD/svg11.dtd">
<!-- Generated by graphviz version 2.48.0 (20210717.1556)
 -->
<!-- Pages: 1 -->
<svg width="250pt" height="283pt"
 viewBox="0.00 0.00 250.00 283.00" xmlns="http://www.w3.org/2000/svg" xmlns:xlink="http://www.w3.org/1999/xlink">
<g id="graph0" class="graph" transform="scale(1 1) rotate(0) translate(4 279)">
<polygon fill="#f5f2f0" stroke="transparent" points="-4,4 -4,-279 246,-279 246,4 -4,4"/>
<text text-anchor="middle" x="121" y="-7.8" font-family="Consolas,Monaco,'Andale Mono','Ubuntu Mono',monospace" font-size="14.00">Variable &lt;p&gt;</text>
<!-- 30 -->
<g id="node1" class="node">
<title>30</title>
<polygon fill="none" stroke="black" points="178,-275 64,-275 64,-239 178,-239 178,-275"/>
<text text-anchor="middle" x="121" y="-253.3" font-family="Consolas,Monaco,'Andale Mono','Ubuntu Mono',monospace" font-size="14.00"> 30: Boolean </text>
</g>
<!-- 38 -->
<g id="node2" class="node">
<title>38</title>
<polygon fill="none" stroke="black" points="167,-203 75,-203 75,-167 167,-167 167,-203"/>
<text text-anchor="middle" x="121" y="-181.3" font-family="Consolas,Monaco,'Andale Mono','Ubuntu Mono',monospace" font-size="14.00"> 38: List </text>
</g>
<!-- 30&#45;&gt;38 -->
<g id="edge1" class="edge">
<title>30&#45;&gt;38</title>
<path fill="none" stroke="black" d="M121,-238.7C121,-230.98 121,-221.71 121,-213.11"/>
<polygon fill="black" stroke="black" points="124.5,-213.1 121,-203.1 117.5,-213.1 124.5,-213.1"/>
</g>
<!-- 41 -->
<g id="node3" class="node">
<title>41</title>
<polygon fill="none" stroke="black" points="178,-131 64,-131 64,-95 178,-95 178,-131"/>
<text text-anchor="middle" x="121" y="-109.3" font-family="Consolas,Monaco,'Andale Mono','Ubuntu Mono',monospace" font-size="14.00"> 41: Integer </text>
</g>
<!-- 38&#45;&gt;41 -->
<g id="edge2" class="edge">
<title>38&#45;&gt;41</title>
<path fill="none" stroke="black" d="M121,-166.7C121,-158.98 121,-149.71 121,-141.11"/>
<polygon fill="black" stroke="black" points="124.5,-141.1 121,-131.1 117.5,-141.1 124.5,-141.1"/>
</g>
<!-- 41.5 -->
<g id="node4" class="node">
<title>41.5</title>
<polygon fill="none" stroke="black" points="242,-59 0,-59 0,-23 242,-23 242,-59"/>
<text text-anchor="middle" x="121" y="-37.3" font-family="Consolas,Monaco,'Andale Mono','Ubuntu Mono',monospace" font-size="14.00"> 41.5: Integer, Boolean, List </text>
</g>
<!-- 41&#45;&gt;41.5 -->
<g id="edge3" class="edge">
<title>41&#45;&gt;41.5</title>
<path fill="none" stroke="black" d="M121,-94.7C121,-86.98 121,-77.71 121,-69.11"/>
<polygon fill="black" stroke="black" points="124.5,-69.1 121,-59.1 117.5,-69.1 124.5,-69.1"/>
</g>
</g>
</svg>
