<?xml version="1.0" encoding="UTF-8" standalone="no"?>
<!DOCTYPE svg PUBLIC "-//W3C//DTD SVG 1.1//EN"
 "http://www.w3.org/Graphics/SVG/1.1/DTD/svg11.dtd">
<!-- Generated by graphviz version 2.48.0 (20210717.1556)
 -->
<!-- Pages: 1 -->
<svg width="227pt" height="283pt"
 viewBox="0.00 0.00 227.00 283.00" xmlns="http://www.w3.org/2000/svg" xmlns:xlink="http://www.w3.org/1999/xlink">
<g id="graph0" class="graph" transform="scale(1 1) rotate(0) translate(4 279)">
<polygon fill="#f5f2f0" stroke="transparent" points="-4,4 -4,-279 223,-279 223,4 -4,4"/>
<text text-anchor="middle" x="109.5" y="-7.8" font-family="Consolas,Monaco,'Andale Mono','Ubuntu Mono',monospace" font-size="14.00">Variable &lt;z&gt;</text>
<!-- 3 -->
<g id="node1" class="node">
<title>3</title>
<polygon fill="none" stroke="black" points="155.5,-275 63.5,-275 63.5,-239 155.5,-239 155.5,-275"/>
<text text-anchor="middle" x="109.5" y="-253.3" font-family="Consolas,Monaco,'Andale Mono','Ubuntu Mono',monospace" font-size="14.00"> 3: Float </text>
</g>
<!-- 11 -->
<g id="node2" class="node">
<title>11</title>
<polygon fill="none" stroke="black" points="211.5,-203 7.5,-203 7.5,-167 211.5,-167 211.5,-203"/>
<text text-anchor="middle" x="109.5" y="-181.3" font-family="Consolas,Monaco,'Andale Mono','Ubuntu Mono',monospace" font-size="14.00"> 11: String, Float, List </text>
</g>
<!-- 3&#45;&gt;11 -->
<g id="edge1" class="edge">
<title>3&#45;&gt;11</title>
<path fill="none" stroke="black" d="M109.5,-238.7C109.5,-230.98 109.5,-221.71 109.5,-213.11"/>
<polygon fill="black" stroke="black" points="113,-213.1 109.5,-203.1 106,-213.1 113,-213.1"/>
</g>
<!-- 14.5 -->
<g id="node3" class="node">
<title>14.5</title>
<polygon fill="none" stroke="black" points="219,-131 0,-131 0,-95 219,-95 219,-131"/>
<text text-anchor="middle" x="109.5" y="-109.3" font-family="Consolas,Monaco,'Andale Mono','Ubuntu Mono',monospace" font-size="14.00"> 14.5: String, Float, List </text>
</g>
<!-- 11&#45;&gt;14.5 -->
<g id="edge2" class="edge">
<title>11&#45;&gt;14.5</title>
<path fill="none" stroke="black" d="M109.5,-166.7C109.5,-158.98 109.5,-149.71 109.5,-141.11"/>
<polygon fill="black" stroke="black" points="113,-141.1 109.5,-131.1 106,-141.1 113,-141.1"/>
</g>
<!-- 15 -->
<g id="node4" class="node">
<title>15</title>
<polygon fill="none" stroke="black" points="181.5,-59 37.5,-59 37.5,-23 181.5,-23 181.5,-59"/>
<text text-anchor="middle" x="109.5" y="-37.3" font-family="Consolas,Monaco,'Andale Mono','Ubuntu Mono',monospace" font-size="14.00"> 15: List, Tuple </text>
</g>
<!-- 14.5&#45;&gt;15 -->
<g id="edge3" class="edge">
<title>14.5&#45;&gt;15</title>
<path fill="none" stroke="black" d="M109.5,-94.7C109.5,-86.98 109.5,-77.71 109.5,-69.11"/>
<polygon fill="black" stroke="black" points="113,-69.1 109.5,-59.1 106,-69.1 113,-69.1"/>
</g>
</g>
</svg>
