<?xml version="1.0" encoding="UTF-8" standalone="no"?>
<!DOCTYPE svg PUBLIC "-//W3C//DTD SVG 1.1//EN"
 "http://www.w3.org/Graphics/SVG/1.1/DTD/svg11.dtd">
<!-- Generated by graphviz version 2.48.0 (20210717.1556)
 -->
<!-- Pages: 1 -->
<svg width="167pt" height="355pt"
 viewBox="0.00 0.00 167.00 355.00" xmlns="http://www.w3.org/2000/svg" xmlns:xlink="http://www.w3.org/1999/xlink">
<g id="graph0" class="graph" transform="scale(1 1) rotate(0) translate(4 351)">
<polygon fill="#f5f2f0" stroke="transparent" points="-4,4 -4,-351 163,-351 163,4 -4,4"/>
<text text-anchor="middle" x="79.5" y="-7.8" font-family="Consolas,Monaco,'Andale Mono','Ubuntu Mono',monospace" font-size="14.00">Variable &lt;y&gt;</text>
<!-- 8 -->
<g id="node1" class="node">
<title>8</title>
<polygon fill="none" stroke="black" points="121.5,-347 37.5,-347 37.5,-311 121.5,-311 121.5,-347"/>
<text text-anchor="middle" x="79.5" y="-325.3" font-family="Consolas,Monaco,'Andale Mono','Ubuntu Mono',monospace" font-size="14.00"> 8: List </text>
</g>
<!-- 8.5 -->
<g id="node2" class="node">
<title>8.5</title>
<polygon fill="none" stroke="black" points="129,-275 30,-275 30,-239 129,-239 129,-275"/>
<text text-anchor="middle" x="79.5" y="-253.3" font-family="Consolas,Monaco,'Andale Mono','Ubuntu Mono',monospace" font-size="14.00"> 8.5: List </text>
</g>
<!-- 8&#45;&gt;8.5 -->
<g id="edge1" class="edge">
<title>8&#45;&gt;8.5</title>
<path fill="none" stroke="black" d="M79.5,-310.7C79.5,-302.98 79.5,-293.71 79.5,-285.11"/>
<polygon fill="black" stroke="black" points="83,-285.1 79.5,-275.1 76,-285.1 83,-285.1"/>
</g>
<!-- 14 -->
<g id="node3" class="node">
<title>14</title>
<polygon fill="none" stroke="black" points="129,-203 30,-203 30,-167 129,-167 129,-203"/>
<text text-anchor="middle" x="79.5" y="-181.3" font-family="Consolas,Monaco,'Andale Mono','Ubuntu Mono',monospace" font-size="14.00"> 14: Tuple </text>
</g>
<!-- 8.5&#45;&gt;14 -->
<g id="edge2" class="edge">
<title>8.5&#45;&gt;14</title>
<path fill="none" stroke="black" d="M79.5,-238.7C79.5,-230.98 79.5,-221.71 79.5,-213.11"/>
<polygon fill="black" stroke="black" points="83,-213.1 79.5,-203.1 76,-213.1 83,-213.1"/>
</g>
<!-- 14.5 -->
<g id="node4" class="node">
<title>14.5</title>
<polygon fill="none" stroke="black" points="159,-131 0,-131 0,-95 159,-95 159,-131"/>
<text text-anchor="middle" x="79.5" y="-109.3" font-family="Consolas,Monaco,'Andale Mono','Ubuntu Mono',monospace" font-size="14.00"> 14.5: List, Tuple </text>
</g>
<!-- 14&#45;&gt;14.5 -->
<g id="edge3" class="edge">
<title>14&#45;&gt;14.5</title>
<path fill="none" stroke="black" d="M79.5,-166.7C79.5,-158.98 79.5,-149.71 79.5,-141.11"/>
<polygon fill="black" stroke="black" points="83,-141.1 79.5,-131.1 76,-141.1 83,-141.1"/>
</g>
<!-- 16 -->
<g id="node5" class="node">
<title>16</title>
<polygon fill="none" stroke="black" points="125.5,-59 33.5,-59 33.5,-23 125.5,-23 125.5,-59"/>
<text text-anchor="middle" x="79.5" y="-37.3" font-family="Consolas,Monaco,'Andale Mono','Ubuntu Mono',monospace" font-size="14.00"> 16: List </text>
</g>
<!-- 14.5&#45;&gt;16 -->
<g id="edge4" class="edge">
<title>14.5&#45;&gt;16</title>
<path fill="none" stroke="black" d="M79.5,-94.7C79.5,-86.98 79.5,-77.71 79.5,-69.11"/>
<polygon fill="black" stroke="black" points="83,-69.1 79.5,-59.1 76,-69.1 83,-69.1"/>
</g>
</g>
</svg>
