<?xml version="1.0" encoding="UTF-8" standalone="no"?>
<!DOCTYPE svg PUBLIC "-//W3C//DTD SVG 1.1//EN"
 "http://www.w3.org/Graphics/SVG/1.1/DTD/svg11.dtd">
<!-- Generated by graphviz version 2.48.0 (20210717.1556)
 -->
<!-- Pages: 1 -->
<svg width="332pt" height="283pt"
 viewBox="0.00 0.00 332.00 283.00" xmlns="http://www.w3.org/2000/svg" xmlns:xlink="http://www.w3.org/1999/xlink">
<g id="graph0" class="graph" transform="scale(1 1) rotate(0) translate(4 279)">
<polygon fill="#f5f2f0" stroke="transparent" points="-4,4 -4,-279 328,-279 328,4 -4,4"/>
<text text-anchor="middle" x="162" y="-7.8" font-family="Consolas,Monaco,'Andale Mono','Ubuntu Mono',monospace" font-size="14.00">Variable &lt;a&gt;</text>
<!-- 29 -->
<g id="node1" class="node">
<title>29</title>
<polygon fill="none" stroke="black" points="219,-275 105,-275 105,-239 219,-239 219,-275"/>
<text text-anchor="middle" x="162" y="-253.3" font-family="Consolas,Monaco,'Andale Mono','Ubuntu Mono',monospace" font-size="14.00"> 29: Integer </text>
</g>
<!-- 32 -->
<g id="node2" class="node">
<title>32</title>
<polygon fill="none" stroke="black" points="208,-203 116,-203 116,-167 208,-167 208,-203"/>
<text text-anchor="middle" x="162" y="-181.3" font-family="Consolas,Monaco,'Andale Mono','Ubuntu Mono',monospace" font-size="14.00"> 32: List </text>
</g>
<!-- 29&#45;&gt;32 -->
<g id="edge1" class="edge">
<title>29&#45;&gt;32</title>
<path fill="none" stroke="black" d="M162,-238.7C162,-230.98 162,-221.71 162,-213.11"/>
<polygon fill="black" stroke="black" points="165.5,-213.1 162,-203.1 158.5,-213.1 165.5,-213.1"/>
</g>
<!-- 34.5 -->
<g id="node3" class="node">
<title>34.5</title>
<polygon fill="none" stroke="black" points="249,-131 75,-131 75,-95 249,-95 249,-131"/>
<text text-anchor="middle" x="162" y="-109.3" font-family="Consolas,Monaco,'Andale Mono','Ubuntu Mono',monospace" font-size="14.00"> 34.5: Integer, List </text>
</g>
<!-- 32&#45;&gt;34.5 -->
<g id="edge2" class="edge">
<title>32&#45;&gt;34.5</title>
<path fill="none" stroke="black" d="M162,-166.7C162,-158.98 162,-149.71 162,-141.11"/>
<polygon fill="black" stroke="black" points="165.5,-141.1 162,-131.1 158.5,-141.1 165.5,-141.1"/>
</g>
<!-- 36 -->
<g id="node4" class="node">
<title>36</title>
<polygon fill="none" stroke="black" points="324,-59 0,-59 0,-23 324,-23 324,-59"/>
<text text-anchor="middle" x="162" y="-37.3" font-family="Consolas,Monaco,'Andale Mono','Ubuntu Mono',monospace" font-size="14.00"> 36: List, String, Float, Tuple, Integer </text>
</g>
<!-- 34.5&#45;&gt;36 -->
<g id="edge3" class="edge">
<title>34.5&#45;&gt;36</title>
<path fill="none" stroke="black" d="M162,-94.7C162,-86.98 162,-77.71 162,-69.11"/>
<polygon fill="black" stroke="black" points="165.5,-69.1 162,-59.1 158.5,-69.1 165.5,-69.1"/>
</g>
</g>
</svg>
