<?xml version="1.0" encoding="UTF-8" standalone="no"?>
<!DOCTYPE svg PUBLIC "-//W3C//DTD SVG 1.1//EN"
 "http://www.w3.org/Graphics/SVG/1.1/DTD/svg11.dtd">
<!-- Generated by graphviz version 2.48.0 (20210717.1556)
 -->
<!-- Pages: 1 -->
<svg width="332pt" height="499pt"
 viewBox="0.00 0.00 332.00 499.00" xmlns="http://www.w3.org/2000/svg" xmlns:xlink="http://www.w3.org/1999/xlink">
<g id="graph0" class="graph" transform="scale(1 1) rotate(0) translate(4 495)">
<polygon fill="#f5f2f0" stroke="transparent" points="-4,4 -4,-495 328,-495 328,4 -4,4"/>
<text text-anchor="middle" x="162" y="-7.8" font-family="Consolas,Monaco,'Andale Mono','Ubuntu Mono',monospace" font-size="14.00">Variable &lt;y&gt;</text>
<!-- 46 -->
<g id="node1" class="node">
<title>46</title>
<polygon fill="none" stroke="black" points="219,-491 105,-491 105,-455 219,-455 219,-491"/>
<text text-anchor="middle" x="162" y="-469.3" font-family="Consolas,Monaco,'Andale Mono','Ubuntu Mono',monospace" font-size="14.00"> 46: Integer </text>
</g>
<!-- 48 -->
<g id="node2" class="node">
<title>48</title>
<polygon fill="none" stroke="black" points="211.5,-419 112.5,-419 112.5,-383 211.5,-383 211.5,-419"/>
<text text-anchor="middle" x="162" y="-397.3" font-family="Consolas,Monaco,'Andale Mono','Ubuntu Mono',monospace" font-size="14.00"> 48: Float </text>
</g>
<!-- 46&#45;&gt;48 -->
<g id="edge1" class="edge">
<title>46&#45;&gt;48</title>
<path fill="none" stroke="black" d="M162,-454.7C162,-446.98 162,-437.71 162,-429.11"/>
<polygon fill="black" stroke="black" points="165.5,-429.1 162,-419.1 158.5,-429.1 165.5,-429.1"/>
</g>
<!-- 50 -->
<g id="node3" class="node">
<title>50</title>
<polygon fill="none" stroke="black" points="211.5,-347 112.5,-347 112.5,-311 211.5,-311 211.5,-347"/>
<text text-anchor="middle" x="162" y="-325.3" font-family="Consolas,Monaco,'Andale Mono','Ubuntu Mono',monospace" font-size="14.00"> 50: Float </text>
</g>
<!-- 48&#45;&gt;50 -->
<g id="edge2" class="edge">
<title>48&#45;&gt;50</title>
<path fill="none" stroke="black" d="M162,-382.7C162,-374.98 162,-365.71 162,-357.11"/>
<polygon fill="black" stroke="black" points="165.5,-357.1 162,-347.1 158.5,-357.1 165.5,-357.1"/>
</g>
<!-- 50.5 -->
<g id="node4" class="node">
<title>50.5</title>
<polygon fill="none" stroke="black" points="253,-275 71,-275 71,-239 253,-239 253,-275"/>
<text text-anchor="middle" x="162" y="-253.3" font-family="Consolas,Monaco,'Andale Mono','Ubuntu Mono',monospace" font-size="14.00"> 50.5: Integer, Float </text>
</g>
<!-- 50&#45;&gt;50.5 -->
<g id="edge3" class="edge">
<title>50&#45;&gt;50.5</title>
<path fill="none" stroke="black" d="M162,-310.7C162,-302.98 162,-293.71 162,-285.11"/>
<polygon fill="black" stroke="black" points="165.5,-285.1 162,-275.1 158.5,-285.1 165.5,-285.1"/>
</g>
<!-- 57 -->
<g id="node5" class="node">
<title>57</title>
<polygon fill="none" stroke="black" points="208,-203 116,-203 116,-167 208,-167 208,-203"/>
<text text-anchor="middle" x="162" y="-181.3" font-family="Consolas,Monaco,'Andale Mono','Ubuntu Mono',monospace" font-size="14.00"> 57: List </text>
</g>
<!-- 50.5&#45;&gt;57 -->
<g id="edge4" class="edge">
<title>50.5&#45;&gt;57</title>
<path fill="none" stroke="black" d="M162,-238.7C162,-230.98 162,-221.71 162,-213.11"/>
<polygon fill="black" stroke="black" points="165.5,-213.1 162,-203.1 158.5,-213.1 165.5,-213.1"/>
</g>
<!-- 57.5 -->
<g id="node6" class="node">
<title>57.5</title>
<polygon fill="none" stroke="black" points="275.5,-131 48.5,-131 48.5,-95 275.5,-95 275.5,-131"/>
<text text-anchor="middle" x="162" y="-109.3" font-family="Consolas,Monaco,'Andale Mono','Ubuntu Mono',monospace" font-size="14.00"> 57.5: Integer, Float, List </text>
</g>
<!-- 57&#45;&gt;57.5 -->
<g id="edge5" class="edge">
<title>57&#45;&gt;57.5</title>
<path fill="none" stroke="black" d="M162,-166.7C162,-158.98 162,-149.71 162,-141.11"/>
<polygon fill="black" stroke="black" points="165.5,-141.1 162,-131.1 158.5,-141.1 165.5,-141.1"/>
</g>
<!-- 61 -->
<g id="node7" class="node">
<title>61</title>
<polygon fill="none" stroke="black" points="324,-59 0,-59 0,-23 324,-23 324,-59"/>
<text text-anchor="middle" x="162" y="-37.3" font-family="Consolas,Monaco,'Andale Mono','Ubuntu Mono',monospace" font-size="14.00"> 61: List, String, Float, Tuple, Integer </text>
</g>
<!-- 57.5&#45;&gt;61 -->
<g id="edge6" class="edge">
<title>57.5&#45;&gt;61</title>
<path fill="none" stroke="black" d="M162,-94.7C162,-86.98 162,-77.71 162,-69.11"/>
<polygon fill="black" stroke="black" points="165.5,-69.1 162,-59.1 158.5,-69.1 165.5,-69.1"/>
</g>
</g>
</svg>
