<?xml version="1.0" encoding="UTF-8" standalone="no"?>
<!DOCTYPE svg PUBLIC "-//W3C//DTD SVG 1.1//EN"
 "http://www.w3.org/Graphics/SVG/1.1/DTD/svg11.dtd">
<!-- Generated by graphviz version 2.48.0 (20210717.1556)
 -->
<!-- Pages: 1 -->
<svg width="332pt" height="283pt"
 viewBox="0.00 0.00 332.00 283.00" xmlns="http://www.w3.org/2000/svg" xmlns:xlink="http://www.w3.org/1999/xlink">
<g id="graph0" class="graph" transform="scale(1 1) rotate(0) translate(4 279)">
<polygon fill="#f5f2f0" stroke="transparent" points="-4,4 -4,-279 328,-279 328,4 -4,4"/>
<text text-anchor="middle" x="162" y="-7.8" font-family="Consolas,Monaco,'Andale Mono','Ubuntu Mono',monospace" font-size="14.00">Variable &lt;z&gt;</text>
<!-- 54 -->
<g id="node1" class="node">
<title>54</title>
<polygon fill="none" stroke="black" points="215.5,-275 108.5,-275 108.5,-239 215.5,-239 215.5,-275"/>
<text text-anchor="middle" x="162" y="-253.3" font-family="Consolas,Monaco,'Andale Mono','Ubuntu Mono',monospace" font-size="14.00"> 54: String </text>
</g>
<!-- 59 -->
<g id="node2" class="node">
<title>59</title>
<polygon fill="none" stroke="black" points="324,-203 0,-203 0,-167 324,-167 324,-203"/>
<text text-anchor="middle" x="162" y="-181.3" font-family="Consolas,Monaco,'Andale Mono','Ubuntu Mono',monospace" font-size="14.00"> 59: List, String, Float, Tuple, Integer </text>
</g>
<!-- 54&#45;&gt;59 -->
<g id="edge1" class="edge">
<title>54&#45;&gt;59</title>
<path fill="none" stroke="black" d="M162,-238.7C162,-230.98 162,-221.71 162,-213.11"/>
<polygon fill="black" stroke="black" points="165.5,-213.1 162,-203.1 158.5,-213.1 165.5,-213.1"/>
</g>
<!-- 62 -->
<g id="node3" class="node">
<title>62</title>
<polygon fill="none" stroke="black" points="215.5,-131 108.5,-131 108.5,-95 215.5,-95 215.5,-131"/>
<text text-anchor="middle" x="162" y="-109.3" font-family="Consolas,Monaco,'Andale Mono','Ubuntu Mono',monospace" font-size="14.00"> 62: String </text>
</g>
<!-- 59&#45;&gt;62 -->
<g id="edge2" class="edge">
<title>59&#45;&gt;62</title>
<path fill="none" stroke="black" d="M162,-166.7C162,-158.98 162,-149.71 162,-141.11"/>
<polygon fill="black" stroke="black" points="165.5,-141.1 162,-131.1 158.5,-141.1 165.5,-141.1"/>
</g>
<!-- 65 -->
<g id="node4" class="node">
<title>65</title>
<polygon fill="none" stroke="black" points="215.5,-59 108.5,-59 108.5,-23 215.5,-23 215.5,-59"/>
<text text-anchor="middle" x="162" y="-37.3" font-family="Consolas,Monaco,'Andale Mono','Ubuntu Mono',monospace" font-size="14.00"> 65: String </text>
</g>
<!-- 62&#45;&gt;65 -->
<g id="edge3" class="edge">
<title>62&#45;&gt;65</title>
<path fill="none" stroke="black" d="M162,-94.7C162,-86.98 162,-77.71 162,-69.11"/>
<polygon fill="black" stroke="black" points="165.5,-69.1 162,-59.1 158.5,-69.1 165.5,-69.1"/>
</g>
</g>
</svg>
