<?xml version="1.0" encoding="UTF-8" standalone="no"?>
<!DOCTYPE svg PUBLIC "-//W3C//DTD SVG 1.1//EN"
 "http://www.w3.org/Graphics/SVG/1.1/DTD/svg11.dtd">
<!-- Generated by graphviz version 2.48.0 (20210717.1556)
 -->
<!-- Pages: 1 -->
<svg width="122pt" height="427pt"
 viewBox="0.00 0.00 122.00 427.00" xmlns="http://www.w3.org/2000/svg" xmlns:xlink="http://www.w3.org/1999/xlink">
<g id="graph0" class="graph" transform="scale(1 1) rotate(0) translate(4 423)">
<polygon fill="#f5f2f0" stroke="transparent" points="-4,4 -4,-423 118,-423 118,4 -4,4"/>
<text text-anchor="middle" x="57" y="-7.8" font-family="Consolas,Monaco,'Andale Mono','Ubuntu Mono',monospace" font-size="14.00">Variable &lt;x&gt;</text>
<!-- 70 -->
<g id="node1" class="node">
<title>70</title>
<polygon fill="none" stroke="black" points="110.5,-419 3.5,-419 3.5,-383 110.5,-383 110.5,-419"/>
<text text-anchor="middle" x="57" y="-397.3" font-family="Consolas,Monaco,'Andale Mono','Ubuntu Mono',monospace" font-size="14.00"> 70: String </text>
</g>
<!-- 74 -->
<g id="node2" class="node">
<title>74</title>
<polygon fill="none" stroke="black" points="99,-347 15,-347 15,-311 99,-311 99,-347"/>
<text text-anchor="middle" x="57" y="-325.3" font-family="Consolas,Monaco,'Andale Mono','Ubuntu Mono',monospace" font-size="14.00"> 74: Set </text>
</g>
<!-- 70&#45;&gt;74 -->
<g id="edge1" class="edge">
<title>70&#45;&gt;74</title>
<path fill="none" stroke="black" d="M57,-382.7C57,-374.98 57,-365.71 57,-357.11"/>
<polygon fill="black" stroke="black" points="60.5,-357.1 57,-347.1 53.5,-357.1 60.5,-357.1"/>
</g>
<!-- 82 -->
<g id="node3" class="node">
<title>82</title>
<polygon fill="none" stroke="black" points="106.5,-275 7.5,-275 7.5,-239 106.5,-239 106.5,-275"/>
<text text-anchor="middle" x="57" y="-253.3" font-family="Consolas,Monaco,'Andale Mono','Ubuntu Mono',monospace" font-size="14.00"> 82: Error </text>
</g>
<!-- 74&#45;&gt;82 -->
<g id="edge2" class="edge">
<title>74&#45;&gt;82</title>
<path fill="none" stroke="black" d="M57,-310.7C57,-302.98 57,-293.71 57,-285.11"/>
<polygon fill="black" stroke="black" points="60.5,-285.1 57,-275.1 53.5,-285.1 60.5,-285.1"/>
</g>
<!-- 84 -->
<g id="node4" class="node">
<title>84</title>
<polygon fill="none" stroke="black" points="106.5,-203 7.5,-203 7.5,-167 106.5,-167 106.5,-203"/>
<text text-anchor="middle" x="57" y="-181.3" font-family="Consolas,Monaco,'Andale Mono','Ubuntu Mono',monospace" font-size="14.00"> 84: Error </text>
</g>
<!-- 82&#45;&gt;84 -->
<g id="edge3" class="edge">
<title>82&#45;&gt;84</title>
<path fill="none" stroke="black" d="M57,-238.7C57,-230.98 57,-221.71 57,-213.11"/>
<polygon fill="black" stroke="black" points="60.5,-213.1 57,-203.1 53.5,-213.1 60.5,-213.1"/>
</g>
<!-- 84.5 -->
<g id="node5" class="node">
<title>84.5</title>
<polygon fill="none" stroke="black" points="114,-131 0,-131 0,-95 114,-95 114,-131"/>
<text text-anchor="middle" x="57" y="-109.3" font-family="Consolas,Monaco,'Andale Mono','Ubuntu Mono',monospace" font-size="14.00"> 84.5: Error </text>
</g>
<!-- 84&#45;&gt;84.5 -->
<g id="edge4" class="edge">
<title>84&#45;&gt;84.5</title>
<path fill="none" stroke="black" d="M57,-166.7C57,-158.98 57,-149.71 57,-141.11"/>
<polygon fill="black" stroke="black" points="60.5,-141.1 57,-131.1 53.5,-141.1 60.5,-141.1"/>
</g>
<!-- 86 -->
<g id="node6" class="node">
<title>86</title>
<polygon fill="none" stroke="black" points="106.5,-59 7.5,-59 7.5,-23 106.5,-23 106.5,-59"/>
<text text-anchor="middle" x="57" y="-37.3" font-family="Consolas,Monaco,'Andale Mono','Ubuntu Mono',monospace" font-size="14.00"> 86: Error </text>
</g>
<!-- 84.5&#45;&gt;86 -->
<g id="edge5" class="edge">
<title>84.5&#45;&gt;86</title>
<path fill="none" stroke="black" d="M57,-94.7C57,-86.98 57,-77.71 57,-69.11"/>
<polygon fill="black" stroke="black" points="60.5,-69.1 57,-59.1 53.5,-69.1 60.5,-69.1"/>
</g>
</g>
</svg>
