<?xml version="1.0" encoding="UTF-8" standalone="no"?>
<!DOCTYPE svg PUBLIC "-//W3C//DTD SVG 1.1//EN"
 "http://www.w3.org/Graphics/SVG/1.1/DTD/svg11.dtd">
<!-- Generated by graphviz version 2.48.0 (20210717.1556)
 -->
<!-- Pages: 1 -->
<svg width="115pt" height="283pt"
 viewBox="0.00 0.00 115.00 283.00" xmlns="http://www.w3.org/2000/svg" xmlns:xlink="http://www.w3.org/1999/xlink">
<g id="graph0" class="graph" transform="scale(1 1) rotate(0) translate(4 279)">
<polygon fill="#f5f2f0" stroke="transparent" points="-4,4 -4,-279 111,-279 111,4 -4,4"/>
<text text-anchor="middle" x="53.5" y="-7.8" font-family="Consolas,Monaco,'Andale Mono','Ubuntu Mono',monospace" font-size="14.00">Variable &lt;i&gt;</text>
<!-- 73 -->
<g id="node1" class="node">
<title>73</title>
<polygon fill="none" stroke="black" points="103,-275 4,-275 4,-239 103,-239 103,-275"/>
<text text-anchor="middle" x="53.5" y="-253.3" font-family="Consolas,Monaco,'Andale Mono','Ubuntu Mono',monospace" font-size="14.00"> 73: Error </text>
</g>
<!-- 76 -->
<g id="node2" class="node">
<title>76</title>
<polygon fill="none" stroke="black" points="103,-203 4,-203 4,-167 103,-167 103,-203"/>
<text text-anchor="middle" x="53.5" y="-181.3" font-family="Consolas,Monaco,'Andale Mono','Ubuntu Mono',monospace" font-size="14.00"> 76: Error </text>
</g>
<!-- 73&#45;&gt;76 -->
<g id="edge1" class="edge">
<title>73&#45;&gt;76</title>
<path fill="none" stroke="black" d="M53.5,-238.7C53.5,-230.98 53.5,-221.71 53.5,-213.11"/>
<polygon fill="black" stroke="black" points="57,-213.1 53.5,-203.1 50,-213.1 57,-213.1"/>
</g>
<!-- 77 -->
<g id="node3" class="node">
<title>77</title>
<polygon fill="none" stroke="black" points="103,-131 4,-131 4,-95 103,-95 103,-131"/>
<text text-anchor="middle" x="53.5" y="-109.3" font-family="Consolas,Monaco,'Andale Mono','Ubuntu Mono',monospace" font-size="14.00"> 77: Error </text>
</g>
<!-- 76&#45;&gt;77 -->
<g id="edge2" class="edge">
<title>76&#45;&gt;77</title>
<path fill="none" stroke="black" d="M53.5,-166.7C53.5,-158.98 53.5,-149.71 53.5,-141.11"/>
<polygon fill="black" stroke="black" points="57,-141.1 53.5,-131.1 50,-141.1 57,-141.1"/>
</g>
<!-- 80 -->
<g id="node4" class="node">
<title>80</title>
<polygon fill="none" stroke="black" points="103,-59 4,-59 4,-23 103,-23 103,-59"/>
<text text-anchor="middle" x="53.5" y="-37.3" font-family="Consolas,Monaco,'Andale Mono','Ubuntu Mono',monospace" font-size="14.00"> 80: Error </text>
</g>
<!-- 77&#45;&gt;80 -->
<g id="edge3" class="edge">
<title>77&#45;&gt;80</title>
<path fill="none" stroke="black" d="M53.5,-94.7C53.5,-86.98 53.5,-77.71 53.5,-69.11"/>
<polygon fill="black" stroke="black" points="57,-69.1 53.5,-59.1 50,-69.1 57,-69.1"/>
</g>
</g>
</svg>
