<?xml version="1.0" encoding="UTF-8" standalone="no"?>
<!DOCTYPE svg PUBLIC "-//W3C//DTD SVG 1.1//EN"
 "http://www.w3.org/Graphics/SVG/1.1/DTD/svg11.dtd">
<!-- Generated by graphviz version 2.48.0 (20210717.1556)
 -->
<!-- Pages: 1 -->
<svg width="527pt" height="355pt"
 viewBox="0.00 0.00 527.00 355.00" xmlns="http://www.w3.org/2000/svg" xmlns:xlink="http://www.w3.org/1999/xlink">
<g id="graph0" class="graph" transform="scale(1 1) rotate(0) translate(4 351)">
<polygon fill="#f5f2f0" stroke="transparent" points="-4,4 -4,-351 523,-351 523,4 -4,4"/>
<text text-anchor="middle" x="259.5" y="-7.8" font-family="Consolas,Monaco,'Andale Mono','Ubuntu Mono',monospace" font-size="14.00">Variable &lt;x&gt;</text>
<!-- 45 -->
<g id="node1" class="node">
<title>45</title>
<polygon fill="none" stroke="black" points="519,-347 0,-347 0,-311 519,-311 519,-347"/>
<text text-anchor="middle" x="259.5" y="-325.3" font-family="Consolas,Monaco,'Andale Mono','Ubuntu Mono',monospace" font-size="14.00"> 45: List, Set, String, Float, Boolean, Tuple, Integer, Dictionary </text>
</g>
<!-- 52 -->
<g id="node2" class="node">
<title>52</title>
<polygon fill="none" stroke="black" points="313,-275 206,-275 206,-239 313,-239 313,-275"/>
<text text-anchor="middle" x="259.5" y="-253.3" font-family="Consolas,Monaco,'Andale Mono','Ubuntu Mono',monospace" font-size="14.00"> 52: String </text>
</g>
<!-- 45&#45;&gt;52 -->
<g id="edge1" class="edge">
<title>45&#45;&gt;52</title>
<path fill="none" stroke="black" d="M259.5,-310.7C259.5,-302.98 259.5,-293.71 259.5,-285.11"/>
<polygon fill="black" stroke="black" points="263,-285.1 259.5,-275.1 256,-285.1 263,-285.1"/>
</g>
<!-- 53 -->
<g id="node3" class="node">
<title>53</title>
<polygon fill="none" stroke="black" points="316.5,-203 202.5,-203 202.5,-167 316.5,-167 316.5,-203"/>
<text text-anchor="middle" x="259.5" y="-181.3" font-family="Consolas,Monaco,'Andale Mono','Ubuntu Mono',monospace" font-size="14.00"> 53: Integer </text>
</g>
<!-- 52&#45;&gt;53 -->
<g id="edge2" class="edge">
<title>52&#45;&gt;53</title>
<path fill="none" stroke="black" d="M259.5,-238.7C259.5,-230.98 259.5,-221.71 259.5,-213.11"/>
<polygon fill="black" stroke="black" points="263,-213.1 259.5,-203.1 256,-213.1 263,-213.1"/>
</g>
<!-- 60 -->
<g id="node4" class="node">
<title>60</title>
<polygon fill="none" stroke="black" points="421.5,-131 97.5,-131 97.5,-95 421.5,-95 421.5,-131"/>
<text text-anchor="middle" x="259.5" y="-109.3" font-family="Consolas,Monaco,'Andale Mono','Ubuntu Mono',monospace" font-size="14.00"> 60: List, String, Float, Tuple, Integer </text>
</g>
<!-- 53&#45;&gt;60 -->
<g id="edge3" class="edge">
<title>53&#45;&gt;60</title>
<path fill="none" stroke="black" d="M259.5,-166.7C259.5,-158.98 259.5,-149.71 259.5,-141.11"/>
<polygon fill="black" stroke="black" points="263,-141.1 259.5,-131.1 256,-141.1 263,-141.1"/>
</g>
<!-- 64 -->
<g id="node5" class="node">
<title>64</title>
<polygon fill="none" stroke="black" points="324,-59 195,-59 195,-23 324,-23 324,-59"/>
<text text-anchor="middle" x="259.5" y="-37.3" font-family="Consolas,Monaco,'Andale Mono','Ubuntu Mono',monospace" font-size="14.00"> 64: Ambiguous </text>
</g>
<!-- 60&#45;&gt;64 -->
<g id="edge4" class="edge">
<title>60&#45;&gt;64</title>
<path fill="none" stroke="black" d="M259.5,-94.7C259.5,-86.98 259.5,-77.71 259.5,-69.11"/>
<polygon fill="black" stroke="black" points="263,-69.1 259.5,-59.1 256,-69.1 263,-69.1"/>
</g>
</g>
</svg>
