<?xml version="1.0" encoding="UTF-8" standalone="no"?>
<!DOCTYPE svg PUBLIC "-//W3C//DTD SVG 1.1//EN"
 "http://www.w3.org/Graphics/SVG/1.1/DTD/svg11.dtd">
<!-- Generated by graphviz version 2.48.0 (20210717.1556)
 -->
<!-- Pages: 1 -->
<svg width="152pt" height="211pt"
 viewBox="0.00 0.00 152.00 211.00" xmlns="http://www.w3.org/2000/svg" xmlns:xlink="http://www.w3.org/1999/xlink">
<g id="graph0" class="graph" transform="scale(1 1) rotate(0) translate(4 207)">
<polygon fill="#f5f2f0" stroke="transparent" points="-4,4 -4,-207 148,-207 148,4 -4,4"/>
<text text-anchor="middle" x="72" y="-7.8" font-family="Consolas,Monaco,'Andale Mono','Ubuntu Mono',monospace" font-size="14.00">Variable &lt;p&gt;</text>
<!-- 4 -->
<g id="node1" class="node">
<title>4</title>
<polygon fill="none" stroke="black" points="125.5,-203 18.5,-203 18.5,-167 125.5,-167 125.5,-203"/>
<text text-anchor="middle" x="72" y="-181.3" font-family="Consolas,Monaco,'Andale Mono','Ubuntu Mono',monospace" font-size="14.00"> 4: Integer </text>
</g>
<!-- 12 -->
<g id="node2" class="node">
<title>12</title>
<polygon fill="none" stroke="black" points="136.5,-131 7.5,-131 7.5,-95 136.5,-95 136.5,-131"/>
<text text-anchor="middle" x="72" y="-109.3" font-family="Consolas,Monaco,'Andale Mono','Ubuntu Mono',monospace" font-size="14.00"> 12: Ambiguous </text>
</g>
<!-- 4&#45;&gt;12 -->
<g id="edge1" class="edge">
<title>4&#45;&gt;12</title>
<path fill="none" stroke="black" d="M72,-166.7C72,-158.98 72,-149.71 72,-141.11"/>
<polygon fill="black" stroke="black" points="75.5,-141.1 72,-131.1 68.5,-141.1 75.5,-141.1"/>
</g>
<!-- 14.5 -->
<g id="node3" class="node">
<title>14.5</title>
<polygon fill="none" stroke="black" points="144,-59 0,-59 0,-23 144,-23 144,-59"/>
<text text-anchor="middle" x="72" y="-37.3" font-family="Consolas,Monaco,'Andale Mono','Ubuntu Mono',monospace" font-size="14.00"> 14.5: Ambiguous </text>
</g>
<!-- 12&#45;&gt;14.5 -->
<g id="edge2" class="edge">
<title>12&#45;&gt;14.5</title>
<path fill="none" stroke="black" d="M72,-94.7C72,-86.98 72,-77.71 72,-69.11"/>
<polygon fill="black" stroke="black" points="75.5,-69.1 72,-59.1 68.5,-69.1 75.5,-69.1"/>
</g>
</g>
</svg>
