<?xml version="1.0" encoding="UTF-8" standalone="no"?>
<!DOCTYPE svg PUBLIC "-//W3C//DTD SVG 1.1//EN"
 "http://www.w3.org/Graphics/SVG/1.1/DTD/svg11.dtd">
<!-- Generated by graphviz version 2.48.0 (20210717.1556)
 -->
<!-- Pages: 1 -->
<svg width="190pt" height="355pt"
 viewBox="0.00 0.00 190.00 355.00" xmlns="http://www.w3.org/2000/svg" xmlns:xlink="http://www.w3.org/1999/xlink">
<g id="graph0" class="graph" transform="scale(1 1) rotate(0) translate(4 351)">
<polygon fill="#f5f2f0" stroke="transparent" points="-4,4 -4,-351 186,-351 186,4 -4,4"/>
<text text-anchor="middle" x="91" y="-7.8" font-family="Consolas,Monaco,'Andale Mono','Ubuntu Mono',monospace" font-size="14.00">Variable &lt;x&gt;</text>
<!-- 2 -->
<g id="node1" class="node">
<title>2</title>
<polygon fill="none" stroke="black" points="140.5,-347 41.5,-347 41.5,-311 140.5,-311 140.5,-347"/>
<text text-anchor="middle" x="91" y="-325.3" font-family="Consolas,Monaco,'Andale Mono','Ubuntu Mono',monospace" font-size="14.00"> 2: String </text>
</g>
<!-- 6 -->
<g id="node2" class="node">
<title>6</title>
<polygon fill="none" stroke="black" points="144.5,-275 37.5,-275 37.5,-239 144.5,-239 144.5,-275"/>
<text text-anchor="middle" x="91" y="-253.3" font-family="Consolas,Monaco,'Andale Mono','Ubuntu Mono',monospace" font-size="14.00"> 6: Integer </text>
</g>
<!-- 2&#45;&gt;6 -->
<g id="edge1" class="edge">
<title>2&#45;&gt;6</title>
<path fill="none" stroke="black" d="M91,-310.7C91,-302.98 91,-293.71 91,-285.11"/>
<polygon fill="black" stroke="black" points="94.5,-285.1 91,-275.1 87.5,-285.1 94.5,-285.1"/>
</g>
<!-- 8.5 -->
<g id="node3" class="node">
<title>8.5</title>
<polygon fill="none" stroke="black" points="182,-203 0,-203 0,-167 182,-167 182,-203"/>
<text text-anchor="middle" x="91" y="-181.3" font-family="Consolas,Monaco,'Andale Mono','Ubuntu Mono',monospace" font-size="14.00"> 8.5: String, Integer </text>
</g>
<!-- 6&#45;&gt;8.5 -->
<g id="edge2" class="edge">
<title>6&#45;&gt;8.5</title>
<path fill="none" stroke="black" d="M91,-238.7C91,-230.98 91,-221.71 91,-213.11"/>
<polygon fill="black" stroke="black" points="94.5,-213.1 91,-203.1 87.5,-213.1 94.5,-213.1"/>
</g>
<!-- 17 -->
<g id="node4" class="node">
<title>17</title>
<polygon fill="none" stroke="black" points="137,-131 45,-131 45,-95 137,-95 137,-131"/>
<text text-anchor="middle" x="91" y="-109.3" font-family="Consolas,Monaco,'Andale Mono','Ubuntu Mono',monospace" font-size="14.00"> 17: List </text>
</g>
<!-- 8.5&#45;&gt;17 -->
<g id="edge3" class="edge">
<title>8.5&#45;&gt;17</title>
<path fill="none" stroke="black" d="M91,-166.7C91,-158.98 91,-149.71 91,-141.11"/>
<polygon fill="black" stroke="black" points="94.5,-141.1 91,-131.1 87.5,-141.1 94.5,-141.1"/>
</g>
<!-- 18 -->
<g id="node5" class="node">
<title>18</title>
<polygon fill="none" stroke="black" points="137,-59 45,-59 45,-23 137,-23 137,-59"/>
<text text-anchor="middle" x="91" y="-37.3" font-family="Consolas,Monaco,'Andale Mono','Ubuntu Mono',monospace" font-size="14.00"> 18: List </text>
</g>
<!-- 17&#45;&gt;18 -->
<g id="edge4" class="edge">
<title>17&#45;&gt;18</title>
<path fill="none" stroke="black" d="M91,-94.7C91,-86.98 91,-77.71 91,-69.11"/>
<polygon fill="black" stroke="black" points="94.5,-69.1 91,-59.1 87.5,-69.1 94.5,-69.1"/>
</g>
</g>
</svg>
